<svg width="24" height="24" viewBox="0 0 24 24" fill="none" xmlns="http://www.w3.org/2000/svg">
<path d="M15.0697 19.25C15.0074 20.0214 14.6569 20.7411 14.0881 21.2659C13.5192 21.7906 12.7736 22.082 11.9997 22.082C11.2258 22.082 10.4802 21.7906 9.91132 21.2659C9.34245 20.7411 8.992 20.0214 8.92969 19.25" stroke="#666E80" stroke-width="1.5" stroke-linecap="round" stroke-linejoin="round"/>
<path d="M19.48 11.9999L19.98 15.9999C20.0413 16.4951 19.9152 16.9954 19.6266 17.4024C19.338 17.8095 18.9076 18.0939 18.42 18.1999C14.1972 19.1898 9.80275 19.1898 5.57998 18.1999C5.09053 18.0961 4.6578 17.8125 4.36716 17.4053C4.07651 16.998 3.94908 16.4965 4.01001 15.9999L5.01001 7.88993C5.26532 6.22258 6.11411 4.70347 7.40024 3.6121C8.68637 2.52072 10.3233 1.93049 12.01 1.94993V1.94993H12.66" stroke="#666E80" stroke-width="1.5" stroke-linecap="round" stroke-linejoin="round"/>
<path d="M19 9C21.2091 9 23 7.20914 23 5C23 2.79086 21.2091 1 19 1C16.7909 1 15 2.79086 15 5C15 7.20914 16.7909 9 19 9Z" stroke="#666E80" stroke-width="1.5" stroke-linecap="round" stroke-linejoin="round"/>
</svg>
